{
	"asset":{
		"generator":"Khronos glTF Blender I/O v4.4.55",
		"version":"2.0"
	},
	"scene":0,
	"scenes":[
		{
			"name":"Scene",
			"nodes":[
				0
			]
		}
	],
	"nodes":[
		{
			"mesh":0,
			"name":"fish low poly",
			"rotation":[
				-0.47926682233810425,
				-0.4976098835468292,
				-0.519802987575531,
				0.5024864673614502
			],
			"scale":[
				0.18765467405319214,
				0.18765467405319214,
				0.18765470385551453
			],
			"translation":[
				2.801333427429199,
				2.2241151332855225,
				-0.44267135858535767
			]
		}
	],
	"materials":[
		{
			"doubleSided":true,
			"name":"Material.003",
			"pbrMetallicRoughness":{
				"baseColorFactor":[
					0.8000000715255737,
					0.1834562122821808,
					0.007661567069590092,
					1
				],
				"metallicFactor":0,
				"roughnessFactor":0.5
			}
		},
		{
			"doubleSided":true,
			"name":"White.001",
			"pbrMetallicRoughness":{
				"metallicFactor":0,
				"roughnessFactor":0.4000000059604645
			}
		}
	],
	"meshes":[
		{
			"name":"Sphere.001",
			"primitives":[
				{
					"attributes":{
						"POSITION":0,
						"NORMAL":1,
						"TEXCOORD_0":2
					},
					"indices":3,
					"material":0
				},
				{
					"attributes":{
						"POSITION":4,
						"NORMAL":5,
						"TEXCOORD_0":6
					},
					"indices":7,
					"material":1
				}
			]
		}
	],
	"accessors":[
		{
			"bufferView":0,
			"componentType":5126,
			"count":521,
			"max":[
				1.644895076751709,
				0.8670812249183655,
				0.8610337376594543
			],
			"min":[
				-1.6527554988861084,
				-0.617250382900238,
				-0.5857453942298889
			],
			"type":"VEC3"
		},
		{
			"bufferView":1,
			"componentType":5126,
			"count":521,
			"type":"VEC3"
		},
		{
			"bufferView":2,
			"componentType":5126,
			"count":521,
			"type":"VEC2"
		},
		{
			"bufferView":3,
			"componentType":5123,
			"count":2874,
			"type":"SCALAR"
		},
		{
			"bufferView":4,
			"componentType":5126,
			"count":366,
			"max":[
				1.8551075458526611,
				1.6839221715927124,
				0.20178532600402832
			],
			"min":[
				-1.8137692213058472,
				-1.9887415170669556,
				-0.3251282870769501
			],
			"type":"VEC3"
		},
		{
			"bufferView":5,
			"componentType":5126,
			"count":366,
			"type":"VEC3"
		},
		{
			"bufferView":6,
			"componentType":5126,
			"count":366,
			"type":"VEC2"
		},
		{
			"bufferView":7,
			"componentType":5123,
			"count":1860,
			"type":"SCALAR"
		}
	],
	"bufferViews":[
		{
			"buffer":0,
			"byteLength":6252,
			"byteOffset":0,
			"target":34962
		},
		{
			"buffer":0,
			"byteLength":6252,
			"byteOffset":6252,
			"target":34962
		},
		{
			"buffer":0,
			"byteLength":4168,
			"byteOffset":12504,
			"target":34962
		},
		{
			"buffer":0,
			"byteLength":5748,
			"byteOffset":16672,
			"target":34963
		},
		{
			"buffer":0,
			"byteLength":4392,
			"byteOffset":22420,
			"target":34962
		},
		{
			"buffer":0,
			"byteLength":4392,
			"byteOffset":26812,
			"target":34962
		},
		{
			"buffer":0,
			"byteLength":2928,
			"byteOffset":31204,
			"target":34962
		},
		{
			"buffer":0,
			"byteLength":3720,
			"byteOffset":34132,
			"target":34963
		}
	],
	"buffers":[
		{
			"byteLength":37852,
			"uri":"data:application/octet-stream;base64,"
		}
	]
}
